<svg width="21" height="14" viewBox="0 0 21 14" fill="none" xmlns="http://www.w3.org/2000/svg">
<path fill-rule="evenodd" clip-rule="evenodd" d="M21 6.96577C21 7.39322 20.6535 7.73974 20.226 7.73974L1.65002 7.73974C1.22257 7.73974 0.876053 7.39322 0.876053 6.96577C0.876053 6.53831 1.22257 6.1918 1.65002 6.1918L20.226 6.1918C20.6535 6.1918 21 6.53832 21 6.96577Z" fill="black"/>
<path fill-rule="evenodd" clip-rule="evenodd" d="M6.2738 13.7521C5.94543 14.0257 5.45739 13.9814 5.18373 13.653L0.299018 7.79157C-0.0996474 7.31319 -0.0996459 6.6183 0.299019 6.13992L5.18374 0.278487C5.45739 -0.0498859 5.94543 -0.0942436 6.2738 0.179411C6.60217 0.453065 6.64653 0.941105 6.37288 1.26948L1.6258 6.96575L6.37288 12.662C6.64653 12.9904 6.60217 13.4784 6.2738 13.7521Z" fill="black"/>
</svg>
