<svg width="22" height="23" viewBox="0 0 22 23" fill="none" xmlns="http://www.w3.org/2000/svg">
<path fill-rule="evenodd" clip-rule="evenodd" d="M17.0013 5.75002H13.4221V3.60335C13.4236 2.79473 12.9511 2.07211 12.241 1.79715C11.531 1.52218 10.7362 1.75405 10.2545 2.37669L7.78482 5.55835C7.3814 6.07427 7.15974 6.72541 7.15845 7.39835V7.66668H2.68442C2.19023 7.66668 1.78961 8.09574 1.78961 8.62502V20.125C1.78961 20.6543 2.19023 21.0833 2.68442 21.0833H17.0013C18.4839 21.0833 19.6857 19.7962 19.6857 18.2083V8.62502C19.6857 7.0372 18.4839 5.75002 17.0013 5.75002ZM3.57923 9.58335H7.15845V19.1667H3.57923V9.58335ZM17.0013 19.1667C17.4955 19.1667 17.8961 18.7376 17.8961 18.2083V8.62502C17.8961 8.09574 17.4955 7.66668 17.0013 7.66668H12.5273C12.0331 7.66668 11.6325 7.23762 11.6325 6.70835V3.60335L9.15387 6.78502C9.02047 6.95743 8.94766 7.17443 8.94807 7.39835V19.1667H17.0013Z" fill="#231F20"/>
</svg>
