<svg width="22" height="23" viewBox="0 0 22 23" fill="none" xmlns="http://www.w3.org/2000/svg">
<path fill-rule="evenodd" clip-rule="evenodd" d="M19.6857 4.79163V18.2083C19.6857 19.7961 18.4839 21.0833 17.0013 21.0833H4.47403C2.99147 21.0833 1.78961 19.7961 1.78961 18.2083V4.79163C1.78961 3.20382 2.99147 1.91664 4.47403 1.91664H17.0013C18.4839 1.91664 19.6857 3.20382 19.6857 4.79163ZM14.9522 11.7779C15.1216 11.9578 15.2169 12.2028 15.2169 12.4583C15.2169 12.7138 15.1216 12.9588 14.9522 13.1387L11.373 16.972C11.2879 17.0593 11.1875 17.1277 11.0777 17.1733C10.8611 17.2758 10.6142 17.2758 10.3977 17.1733C10.2878 17.1277 10.1875 17.0593 10.1024 16.972L6.52314 13.1387C6.29616 12.8956 6.20752 12.5413 6.2906 12.2092C6.37368 11.8772 6.61586 11.6178 6.92591 11.5288C7.23597 11.4399 7.56679 11.5348 7.79377 11.7779L9.84287 13.982V6.7083C9.84287 6.17903 10.2435 5.74997 10.7377 5.74997C11.2319 5.74997 11.6325 6.17903 11.6325 6.7083V13.982L13.6816 11.7779C13.8496 11.5965 14.0783 11.4944 14.3169 11.4944C14.5555 11.4944 14.7842 11.5965 14.9522 11.7779ZM17.0013 3.8333C17.4955 3.8333 17.8961 4.26236 17.8961 4.79163V18.2083C17.8961 18.7376 17.4955 19.1666 17.0013 19.1666H4.47403C3.97985 19.1666 3.57923 18.7376 3.57923 18.2083V4.79163C3.57923 4.26236 3.97985 3.8333 4.47403 3.8333H17.0013Z" fill="#231F20"/>
</svg>
