<svg width="22" height="23" viewBox="0 0 22 23" fill="none" xmlns="http://www.w3.org/2000/svg">
<path fill-rule="evenodd" clip-rule="evenodd" d="M15.498 3.08589C17.4626 3.68035 18.9914 5.33588 19.5247 7.4463C19.9836 9.46752 19.3561 11.5944 17.8961 12.9663L11.3909 19.8471C11.0429 20.2124 10.4861 20.2124 10.1382 19.8471L3.57922 12.9663C2.11924 11.5944 1.49174 9.46752 1.95068 7.4463C2.48399 5.33588 4.01279 3.68035 5.97731 3.08589C7.62884 2.60108 9.39724 2.98912 10.7377 4.13047C12.0781 2.98912 13.8465 2.60108 15.498 3.08589ZM10.7377 17.825L16.6702 11.5959C17.6432 10.6815 18.0488 9.25594 17.7172 7.91589C17.337 6.47485 16.2875 5.34722 14.9433 4.93547C13.6213 4.56229 12.2152 5.00521 11.2925 6.08547C10.9445 6.45073 10.3877 6.45073 10.0397 6.08547C9.34041 5.29019 8.37486 4.82484 7.35531 4.79172C7.0524 4.79685 6.75148 4.84519 6.4605 4.93547C5.11622 5.34722 4.06673 6.47485 3.6866 7.91589C3.37186 9.27069 3.80602 10.6991 4.80511 11.5959L10.7377 17.825Z" fill="#231F20"/>
</svg>
