<svg width="22" height="23" viewBox="0 0 22 23" fill="none" xmlns="http://www.w3.org/2000/svg">
<path fill-rule="evenodd" clip-rule="evenodd" d="M16.0528 16.1288C16.5496 15.6209 17.2093 15.3362 17.8961 15.3334C19.3787 15.3334 20.5805 16.6206 20.5805 18.2084C20.5805 19.7962 19.3787 21.0834 17.8961 21.0834C16.4136 21.0834 15.2117 19.7962 15.2117 18.2084C15.2029 18.084 15.2029 17.959 15.2117 17.8346L6.80052 12.9088C6.32756 13.81 5.43926 14.3698 4.47403 14.375C2.99146 14.375 1.78961 13.0879 1.78961 11.5C1.78961 9.91222 2.99146 8.62504 4.47403 8.62504C5.43926 8.63028 6.32756 9.19012 6.80052 10.0913L15.2117 5.16546C15.2029 5.04106 15.2029 4.91612 15.2117 4.79171C15.2071 3.42685 16.0991 2.24661 17.3465 1.96715C18.5939 1.68769 19.8528 2.38604 20.3594 3.63845C20.8659 4.89087 20.4805 6.35211 19.4369 7.1355C18.3933 7.9189 16.9793 7.8085 16.0528 6.8713L8.13378 11.5L16.0528 16.1288ZM18.7909 4.79171C18.7909 4.26244 18.3903 3.83338 17.8961 3.83338C17.4019 3.83338 17.0013 4.26244 17.0013 4.79171C17.0013 5.32099 17.4019 5.75005 17.8961 5.75005C18.3903 5.75005 18.7909 5.32099 18.7909 4.79171ZM4.47403 12.4584C3.97984 12.4584 3.57922 12.0293 3.57922 11.5C3.57922 10.9708 3.97984 10.5417 4.47403 10.5417C4.96821 10.5417 5.36883 10.9708 5.36883 11.5C5.36883 12.0293 4.96821 12.4584 4.47403 12.4584ZM17.0013 18.2084C17.0013 18.7376 17.4019 19.1667 17.8961 19.1667C18.3903 19.1667 18.7909 18.7376 18.7909 18.2084C18.7909 17.6791 18.3903 17.25 17.8961 17.25C17.4019 17.25 17.0013 17.6791 17.0013 18.2084Z" fill="#231F20"/>
</svg>
